<svg height="512" viewBox="0 0 512 512" width="512" xmlns="http://www.w3.org/2000/svg" xmlns:xlink="http://www.w3.org/1999/xlink"><linearGradient id="New_Gradient_Swatch_2" gradientUnits="userSpaceOnUse" x1="200" x2="200" y1="54.757" y2="405.611"><stop offset="0" stop-color="#fc5c7d"/><stop offset=".129" stop-color="#f35e85"/><stop offset=".343" stop-color="#d9659b"/><stop offset=".616" stop-color="#b070bf"/><stop offset=".934" stop-color="#777ff0"/><stop offset="1" stop-color="#6a82fb"/></linearGradient><linearGradient id="New_Gradient_Swatch_2-2" gradientTransform="matrix(.707 .707 -.707 .707 245.255 -64.098)" x1="200" x2="200" xlink:href="#New_Gradient_Swatch_2" y1="54.757" y2="405.611"/><linearGradient id="New_Gradient_Swatch_2-3" gradientTransform="matrix(.707 .707 -.707 .707 267.882 -73.47)" x1="222.627" x2="222.627" xlink:href="#New_Gradient_Swatch_2" y1="54.757" y2="405.611"/><linearGradient id="New_Gradient_Swatch_2-4" gradientTransform="matrix(.707 .707 -.707 .707 222.627 -54.725)" x1="177.373" x2="177.373" xlink:href="#New_Gradient_Swatch_2" y1="54.757" y2="405.611"/><linearGradient id="New_Gradient_Swatch_2-5" x1="360" x2="360" xlink:href="#New_Gradient_Swatch_2" y1="54.757" y2="405.611"/><linearGradient id="New_Gradient_Swatch_2-6" x1="312" x2="312" xlink:href="#New_Gradient_Swatch_2" y1="54.757" y2="405.611"/><linearGradient id="New_Gradient_Swatch_2-7" x1="280" x2="280" xlink:href="#New_Gradient_Swatch_2" y1="54.757" y2="405.611"/><linearGradient id="New_Gradient_Swatch_2-8" x1="344" x2="344" xlink:href="#New_Gradient_Swatch_2" y1="54.757" y2="405.611"/><linearGradient id="New_Gradient_Swatch_2-9" x1="376" x2="376" xlink:href="#New_Gradient_Swatch_2" y1="54.757" y2="405.611"/><linearGradient id="New_Gradient_Swatch_2-10" x1="408" x2="408" xlink:href="#New_Gradient_Swatch_2" y1="54.757" y2="405.611"/><linearGradient id="New_Gradient_Swatch_2-11" x1="440" x2="440" xlink:href="#New_Gradient_Swatch_2" y1="54.757" y2="405.611"/><linearGradient id="New_Gradient_Swatch_2-12" x1="424" x2="424" xlink:href="#New_Gradient_Swatch_2" y1="54.757" y2="405.611"/><linearGradient id="New_Gradient_Swatch_2-13" x1="456" x2="456" xlink:href="#New_Gradient_Swatch_2" y1="54.757" y2="405.611"/><g id="GD001"><path d="m280 448h-17.583l-7.111-32h104.694a24.028 24.028 0 0 0 24-24v-224a24.028 24.028 0 0 0 -24-24h-320a24.028 24.028 0 0 0 -24 24v224a24.028 24.028 0 0 0 24 24h104.694l-7.111 32h-17.583a24 24 0 0 0 0 48h160a24 24 0 0 0 0-48zm-240-288h320a8.009 8.009 0 0 1 8 8v192h-336v-192a8.009 8.009 0 0 1 8-8zm-8 232v-16h336v16a8.009 8.009 0 0 1 -8 8h-320a8.009 8.009 0 0 1 -8-8zm129.084 24h77.832l7.111 32h-92.054zm118.916 64h-160a8 8 0 0 1 0-16h160a8 8 0 0 1 0 16z" fill="url(#New_Gradient_Swatch_2)"/><path d="m144 256h112v16h-112z" fill="url(#New_Gradient_Swatch_2-2)" transform="matrix(.707 -.707 .707 .707 -128.098 218.745)"/><path d="m190.627 278.628h64v16h-64z" fill="url(#New_Gradient_Swatch_2-3)" transform="matrix(.707 -.707 .707 .707 -137.47 241.373)"/><path d="m145.373 233.373h64v16h-64z" fill="url(#New_Gradient_Swatch_2-4)" transform="matrix(.707 -.707 .707 .707 -118.725 196.118)"/><path d="m472 64v-24a24.028 24.028 0 0 0 -24-24h-176a24.028 24.028 0 0 0 -24 24v24a24.027 24.027 0 0 0 -24 24v40h16v-40a8.009 8.009 0 0 1 8-8h224a8.009 8.009 0 0 1 8 8v368a8.009 8.009 0 0 1 -8 8h-152v16h144v16h16v-17.376a24.038 24.038 0 0 0 16-22.624v-368a24.027 24.027 0 0 0 -24-24zm-208-24a8.009 8.009 0 0 1 8-8h176a8.009 8.009 0 0 1 8 8v24h-192z" fill="url(#New_Gradient_Swatch_2-5)"/><path d="m304 104h16v16h-16z" fill="url(#New_Gradient_Swatch_2-6)"/><path d="m272 104h16v16h-16z" fill="url(#New_Gradient_Swatch_2-7)"/><path d="m336 104h16v16h-16z" fill="url(#New_Gradient_Swatch_2-8)"/><path d="m368 104h16v16h-16z" fill="url(#New_Gradient_Swatch_2-9)"/><path d="m400 104h16v16h-16z" fill="url(#New_Gradient_Swatch_2-10)"/><path d="m432 104h16v16h-16z" fill="url(#New_Gradient_Swatch_2-11)"/><path d="m416 136h16v16h-16z" fill="url(#New_Gradient_Swatch_2-12)"/><path d="m448 136h16v16h-16z" fill="url(#New_Gradient_Swatch_2-13)"/><path d="m400 168h16v16h-16z" fill="url(#New_Gradient_Swatch_2-10)"/><path d="m432 168h16v16h-16z" fill="url(#New_Gradient_Swatch_2-11)"/><path d="m416 200h16v16h-16z" fill="url(#New_Gradient_Swatch_2-12)"/><path d="m448 200h16v16h-16z" fill="url(#New_Gradient_Swatch_2-13)"/><path d="m400 232h16v16h-16z" fill="url(#New_Gradient_Swatch_2-10)"/><path d="m432 232h16v16h-16z" fill="url(#New_Gradient_Swatch_2-11)"/><path d="m416 264h16v16h-16z" fill="url(#New_Gradient_Swatch_2-12)"/><path d="m448 264h16v16h-16z" fill="url(#New_Gradient_Swatch_2-13)"/><path d="m400 296h16v16h-16z" fill="url(#New_Gradient_Swatch_2-10)"/><path d="m432 296h16v16h-16z" fill="url(#New_Gradient_Swatch_2-11)"/><path d="m416 328h16v16h-16z" fill="url(#New_Gradient_Swatch_2-12)"/><path d="m448 328h16v16h-16z" fill="url(#New_Gradient_Swatch_2-13)"/><path d="m400 360h16v16h-16z" fill="url(#New_Gradient_Swatch_2-10)"/><path d="m432 360h16v16h-16z" fill="url(#New_Gradient_Swatch_2-11)"/><path d="m416 392h16v16h-16z" fill="url(#New_Gradient_Swatch_2-12)"/><path d="m448 392h16v16h-16z" fill="url(#New_Gradient_Swatch_2-13)"/><path d="m400 424h16v16h-16z" fill="url(#New_Gradient_Swatch_2-10)"/><path d="m432 424h16v16h-16z" fill="url(#New_Gradient_Swatch_2-11)"/></g></svg>